<svg width="494" height="36" viewBox="0 0 494 36" fill="none" xmlns="http://www.w3.org/2000/svg">
<path d="M24.3817 35.96L6.81369 16.376V35H0.717687V0.679998L18.2377 20.6V1.544H24.3817V35.96ZM38.4937 25.928C35.3737 25.928 33.0297 24.984 31.4617 23.096C29.9097 21.192 29.1337 18.6 29.1337 15.32C29.1337 12.056 29.9097 9.472 31.4617 7.568C33.0297 5.664 35.3737 4.712 38.4937 4.712C41.6137 4.712 43.9177 5.688 45.4057 7.64C46.9097 9.592 47.6617 12.152 47.6617 15.32C47.6617 18.488 46.9097 21.048 45.4057 23C43.9177 24.952 41.6137 25.928 38.4937 25.928ZM38.4457 21.8C39.6937 21.8 40.5977 21.224 41.1577 20.072C41.7177 18.92 41.9977 17.336 41.9977 15.32C41.9977 13.304 41.7177 11.736 41.1577 10.616C40.5977 9.496 39.6937 8.936 38.4457 8.936C37.1977 8.936 36.2777 9.456 35.6857 10.496C35.0937 11.52 34.7977 13.128 34.7977 15.32C34.7977 19.64 36.0137 21.8 38.4457 21.8ZM29.6617 35V30.536H47.4697V35H29.6617ZM83.8751 35.672L67.8431 17.384L66.3551 15.464L66.5951 20.12V35H60.6911V0.967998H61.2191L77.0111 19.4L78.6911 21.584L78.4511 17V1.544H84.3551V35.672H83.8751ZM102.655 35.576C99.6307 35.576 97.0787 34.864 94.9987 33.44C92.9347 32 91.3667 29.984 90.2947 27.392C89.2227 24.8 88.6867 21.752 88.6867 18.248C88.6867 14.776 89.2147 11.744 90.2707 9.152C91.3267 6.56 92.8787 4.552 94.9267 3.128C96.9907 1.688 99.5187 0.967998 102.511 0.967998C105.631 0.967998 108.223 1.696 110.287 3.152C112.367 4.608 113.927 6.632 114.967 9.224C116.007 11.816 116.527 14.824 116.527 18.248C116.527 21.752 115.991 24.8 114.919 27.392C113.847 29.984 112.279 32 110.215 33.44C108.151 34.864 105.631 35.576 102.655 35.576ZM102.655 30.44C104.751 30.44 106.519 29.432 107.959 27.416C109.415 25.384 110.143 22.28 110.143 18.104C110.143 14.088 109.463 11.064 108.103 9.032C106.759 6.984 104.895 5.96 102.511 5.96C100.191 5.96 98.3747 6.984 97.0627 9.032C95.7667 11.08 95.1187 14.12 95.1187 18.152C95.1187 22.328 95.8067 25.424 97.1827 27.44C98.5747 29.44 100.399 30.44 102.655 30.44ZM125.544 35V6.968H117.816V1.544H139.464V6.968H131.736V35H125.544ZM143.111 35V1.544H160.583V6.776H149.111V14.6H158.231V19.688H149.111V29.576H161.543V35H143.111ZM174.022 35.528C171.67 35.528 169.614 35.136 167.854 34.352C166.094 33.568 164.806 32.744 163.99 31.88L166.438 26.84C166.774 27.272 167.302 27.76 168.022 28.304C168.758 28.848 169.606 29.328 170.566 29.744C171.542 30.144 172.55 30.344 173.59 30.344C174.79 30.344 175.83 30.008 176.71 29.336C177.606 28.664 178.054 27.672 178.054 26.36C178.054 25.064 177.59 24.04 176.662 23.288C175.75 22.52 174.502 21.656 172.918 20.696C171.622 19.912 170.35 19.08 169.102 18.2C167.854 17.304 166.814 16.216 165.982 14.936C165.166 13.64 164.758 12.008 164.758 10.04C164.758 7.4 165.598 5.232 167.278 3.536C168.974 1.824 171.43 0.967998 174.646 0.967998C176.278 0.967998 177.662 1.16 178.798 1.544C179.95 1.928 180.878 2.368 181.582 2.864C182.302 3.36 182.838 3.768 183.19 4.088L180.502 8.984C180.278 8.664 179.902 8.272 179.374 7.808C178.846 7.344 178.198 6.936 177.43 6.584C176.662 6.232 175.814 6.056 174.886 6.056C173.59 6.056 172.614 6.432 171.958 7.184C171.318 7.92 170.998 8.792 170.998 9.8C170.998 11.096 171.47 12.152 172.414 12.968C173.374 13.784 174.534 14.6 175.894 15.416C177.398 16.312 178.79 17.216 180.07 18.128C181.35 19.024 182.382 20.104 183.166 21.368C183.95 22.616 184.342 24.216 184.342 26.168C184.342 29.096 183.422 31.392 181.582 33.056C179.742 34.704 177.222 35.528 174.022 35.528ZM196.681 35V1.544H205.657C207.929 1.544 209.993 1.888 211.849 2.576C213.705 3.264 215.185 4.464 216.289 6.176C217.393 7.872 217.945 10.232 217.945 13.256C217.945 15.448 217.529 17.52 216.697 19.472C215.865 21.408 214.553 22.984 212.761 24.2C210.985 25.416 208.681 26.024 205.849 26.024H202.873V35H196.681ZM205.273 6.392H202.873V20.984H205.417C207.529 20.984 209.113 20.352 210.169 19.088C211.225 17.824 211.753 15.992 211.753 13.592C211.753 11.144 211.273 9.336 210.313 8.168C209.353 6.984 207.673 6.392 205.273 6.392ZM221.643 35V1.544H227.835V15.512H238.923V1.544H245.115V35H238.923V20.792H227.835V35H221.643ZM263.419 35.576C260.395 35.576 257.843 34.864 255.763 33.44C253.699 32 252.131 29.984 251.059 27.392C249.987 24.8 249.451 21.752 249.451 18.248C249.451 14.776 249.979 11.744 251.035 9.152C252.091 6.56 253.643 4.552 255.691 3.128C257.755 1.688 260.283 0.967998 263.275 0.967998C266.395 0.967998 268.987 1.696 271.051 3.152C273.131 4.608 274.691 6.632 275.731 9.224C276.771 11.816 277.291 14.824 277.291 18.248C277.291 21.752 276.755 24.8 275.683 27.392C274.611 29.984 273.043 32 270.979 33.44C268.915 34.864 266.395 35.576 263.419 35.576ZM263.419 30.44C265.515 30.44 267.283 29.432 268.723 27.416C270.179 25.384 270.907 22.28 270.907 18.104C270.907 14.088 270.227 11.064 268.867 9.032C267.523 6.984 265.659 5.96 263.275 5.96C260.955 5.96 259.139 6.984 257.827 9.032C256.531 11.08 255.883 14.12 255.883 18.152C255.883 22.328 256.571 25.424 257.947 27.44C259.339 29.44 261.163 30.44 263.419 30.44ZM286.308 35V6.968H278.58V1.544H300.228V6.968H292.5V35H286.308ZM315.452 35.576C312.428 35.576 309.876 34.864 307.796 33.44C305.732 32 304.164 29.984 303.092 27.392C302.02 24.8 301.484 21.752 301.484 18.248C301.484 14.776 302.012 11.744 303.068 9.152C304.124 6.56 305.676 4.552 307.724 3.128C309.788 1.688 312.316 0.967998 315.308 0.967998C318.428 0.967998 321.02 1.696 323.084 3.152C325.164 4.608 326.724 6.632 327.764 9.224C328.804 11.816 329.324 14.824 329.324 18.248C329.324 21.752 328.788 24.8 327.716 27.392C326.644 29.984 325.076 32 323.012 33.44C320.948 34.864 318.428 35.576 315.452 35.576ZM315.452 30.44C317.548 30.44 319.316 29.432 320.756 27.416C322.212 25.384 322.94 22.28 322.94 18.104C322.94 14.088 322.26 11.064 320.9 9.032C319.556 6.984 317.692 5.96 315.308 5.96C312.988 5.96 311.172 6.984 309.86 9.032C308.564 11.08 307.916 14.12 307.916 18.152C307.916 22.328 308.604 25.424 309.98 27.44C311.372 29.44 313.196 30.44 315.452 30.44ZM346.6 35.864C343.768 35.864 341.304 35.16 339.208 33.752C337.112 32.344 335.48 30.304 334.312 27.632C333.16 24.96 332.584 21.736 332.584 17.96C332.584 14.648 333.216 11.72 334.48 9.176C335.744 6.616 337.488 4.608 339.712 3.152C341.952 1.696 344.52 0.967998 347.416 0.967998C349.528 0.967998 351.216 1.136 352.48 1.472C353.76 1.792 354.752 2.184 355.456 2.648C356.176 3.112 356.744 3.544 357.16 3.944L354.52 9.272C354.28 8.952 353.904 8.584 353.392 8.168C352.88 7.752 352.152 7.392 351.208 7.088C350.264 6.784 349.032 6.632 347.512 6.632C345.896 6.632 344.448 7.104 343.168 8.048C341.888 8.992 340.872 10.304 340.12 11.984C339.384 13.664 339.016 15.608 339.016 17.816C339.016 21.816 339.72 24.928 341.128 27.152C342.536 29.376 344.392 30.488 346.696 30.488C349.176 30.488 350.928 29.904 351.952 28.736C352.992 27.552 353.512 25.848 353.512 23.624C353.512 23.24 353.496 22.808 353.464 22.328H346.6V17.048H359.128C359.208 17.784 359.272 18.576 359.32 19.424C359.384 20.272 359.416 21.032 359.416 21.704C359.416 23.512 359.24 25.264 358.888 26.96C358.536 28.656 357.896 30.176 356.968 31.52C356.04 32.848 354.736 33.904 353.056 34.688C351.392 35.472 349.24 35.864 346.6 35.864ZM385.596 35H378.156L369.564 22.904V35H363.468V1.544H372.78C375.052 1.544 377.084 1.88 378.876 2.552C380.668 3.208 382.084 4.312 383.124 5.864C384.164 7.416 384.684 9.528 384.684 12.2C384.684 13.656 384.436 15.16 383.94 16.712C383.46 18.248 382.652 19.624 381.516 20.84C380.396 22.056 378.876 22.904 376.956 23.384L385.596 35ZM369.564 19.88H372.108C373.516 19.88 374.692 19.552 375.636 18.896C376.596 18.224 377.316 17.352 377.796 16.28C378.292 15.192 378.54 14.024 378.54 12.776C378.54 10.616 378.044 9.008 377.052 7.952C376.06 6.88 374.364 6.344 371.964 6.344H369.564V19.88ZM385.682 35L399.842 0.967998H400.322L414.53 35H408.002L406.13 30.152H394.178L392.402 35H385.682ZM399.266 16.376L395.906 25.496H404.354L400.85 16.376L400.034 13.688L399.266 16.376ZM416.204 35V1.544H425.18C427.452 1.544 429.516 1.888 431.372 2.576C433.228 3.264 434.708 4.464 435.812 6.176C436.916 7.872 437.468 10.232 437.468 13.256C437.468 15.448 437.052 17.52 436.22 19.472C435.388 21.408 434.076 22.984 432.284 24.2C430.508 25.416 428.204 26.024 425.372 26.024H422.396V35H416.204ZM424.796 6.392H422.396V20.984H424.94C427.052 20.984 428.636 20.352 429.692 19.088C430.748 17.824 431.276 15.992 431.276 13.592C431.276 11.144 430.796 9.336 429.836 8.168C428.876 6.984 427.196 6.392 424.796 6.392ZM441.166 35V1.544H447.358V15.512H458.446V1.544H464.638V35H458.446V20.792H447.358V35H441.166ZM476.942 35V21.488L466.382 1.544H473.15L480.182 16.088L486.926 1.544H493.646L483.086 21.92V35H476.942Z" fill="white"/>
</svg>
